<svg width="284" height="244" viewBox="0 0 284 244" fill="none" xmlns="http://www.w3.org/2000/svg">
<path d="M51.0453 25.3643L250.547 0.868525C254.384 0.397378 257.877 3.12609 258.348 6.96326L261.943 36.2434C262.414 40.0805 259.686 43.5731 255.848 44.0443L243.442 45.5676L224.087 47.9441L87.1155 64.7621C83.2783 65.2332 80.5496 68.7258 81.0208 72.563L91.0141 153.952C91.4852 157.789 94.9778 160.518 98.815 160.046L158.368 152.734C162.205 152.263 164.934 148.771 164.462 144.933L162.269 127.068C161.798 123.23 158.305 120.502 154.468 120.973L119.729 125.238C115.892 125.709 112.399 122.981 111.928 119.144L110.283 105.744C109.812 101.907 112.54 98.4144 116.377 97.9433L185.359 89.4733C189.197 89.0022 192.689 91.7309 193.16 95.5681L202.788 173.979C203.259 177.816 200.53 181.309 196.693 181.78L72.1287 197.075C68.2915 197.546 64.7989 194.817 64.3278 190.98L44.9505 33.1652C44.4794 29.328 47.2081 25.8354 51.0453 25.3643Z" fill="#1DBAA7" stroke="#0E5D53"/>
<path d="M27.525 203.055L64.7455 198.485L197.747 182.154C201.036 181.751 203.375 178.757 202.971 175.468L193.038 94.5755C192.635 91.2865 189.641 88.9476 186.352 89.3514L115.385 98.0651C112.096 98.4689 109.757 101.463 110.161 104.752L112.111 120.632C112.515 123.921 115.508 126.26 118.797 125.856L155.521 121.347C158.81 120.943 161.804 123.282 162.208 126.571L164.523 145.43C164.927 148.719 162.588 151.712 159.299 152.116L98.2578 159.611C94.9688 160.015 91.9751 157.676 91.5713 154.387L81.4561 72.0057C81.0523 68.7167 83.3912 65.7231 86.6802 65.3192L214.222 49.659C217.511 49.2552 220.505 51.5941 220.909 54.8831L240.164 211.705C240.568 214.994 238.229 217.988 234.94 218.392L32.4607 243.253C29.1717 243.657 26.1781 241.318 25.7742 238.029L22.301 209.742C21.8971 206.453 24.236 203.459 27.525 203.055Z" fill="#72A2F9" stroke="#293CB5"/>
</svg>
